<?xml version="1.0" encoding="UTF-8" standalone="no"?>
<!DOCTYPE svg PUBLIC "-//W3C//DTD SVG 1.1//EN"
 "http://www.w3.org/Graphics/SVG/1.1/DTD/svg11.dtd">
<!-- Generated by graphviz version 13.1.0 (20250701.0955)
 -->
<!-- Title: interface/driver_mb85rsxx_interface.h Pages: 1 -->
<svg width="408pt" height="176pt"
 viewBox="0.00 0.00 408.00 176.00" xmlns="http://www.w3.org/2000/svg" xmlns:xlink="http://www.w3.org/1999/xlink">
<g id="graph0" class="graph" transform="scale(1 1) rotate(0) translate(4 172)">
<title>interface/driver_mb85rsxx_interface.h</title>
<!-- Node1 -->
<g id="Node000001" class="node">
<title>Node1</title>
<g id="a_Node000001"><a xlink:title="driver mb85rsxx interface header file">
<polygon fill="#999999" stroke="#666666" points="274.12,-168 145.62,-168 145.62,-136 274.12,-136 274.12,-168"/>
<text xml:space="preserve" text-anchor="start" x="153.62" y="-154.5" font-family="Helvetica,sans-Serif" font-size="10.00">interface/driver_mb85rsxx</text>
<text xml:space="preserve" text-anchor="middle" x="209.88" y="-142.5" font-family="Helvetica,sans-Serif" font-size="10.00">_interface.h</text>
</a>
</g>
</g>
<!-- Node2 -->
<g id="Node000002" class="node">
<title>Node2</title>
<g id="a_Node000002"><a xlink:href="driver__mb85rsxx__basic_8h.html" target="_top" xlink:title="driver mb85rsxx basic header file">
<polygon fill="white" stroke="#666666" points="127.75,-100 0,-100 0,-68 127.75,-68 127.75,-100"/>
<text xml:space="preserve" text-anchor="start" x="8" y="-86.5" font-family="Helvetica,sans-Serif" font-size="10.00">example/driver_mb85rsxx</text>
<text xml:space="preserve" text-anchor="middle" x="63.88" y="-74.5" font-family="Helvetica,sans-Serif" font-size="10.00">_basic.h</text>
</a>
</g>
</g>
<!-- Node1&#45;&gt;Node2 -->
<g id="edge1_Node000001_Node000002" class="edge">
<title>Node1&#45;&gt;Node2</title>
<g id="a_edge1_Node000001_Node000002"><a xlink:title=" ">
<path fill="none" stroke="#63b8ff" d="M165.39,-130.89C143.78,-121.12 118.21,-109.56 98.14,-100.49"/>
<polygon fill="#63b8ff" stroke="#63b8ff" points="163.71,-133.97 174.27,-134.9 166.59,-127.59 163.71,-133.97"/>
</a>
</g>
</g>
<!-- Node4 -->
<g id="Node000004" class="node">
<title>Node4</title>
<g id="a_Node000004"><a xlink:href="driver__mb85rsxx__interface__template_8c.html" target="_top" xlink:title="driver mb85rsxx interface template source file">
<polygon fill="white" stroke="#666666" points="274.12,-100 145.62,-100 145.62,-68 274.12,-68 274.12,-100"/>
<text xml:space="preserve" text-anchor="start" x="153.62" y="-86.5" font-family="Helvetica,sans-Serif" font-size="10.00">interface/driver_mb85rsxx</text>
<text xml:space="preserve" text-anchor="middle" x="209.88" y="-74.5" font-family="Helvetica,sans-Serif" font-size="10.00">_interface_template.c</text>
</a>
</g>
</g>
<!-- Node1&#45;&gt;Node4 -->
<g id="edge3_Node000001_Node000004" class="edge">
<title>Node1&#45;&gt;Node4</title>
<g id="a_edge3_Node000001_Node000004"><a xlink:title=" ">
<path fill="none" stroke="#63b8ff" d="M209.88,-124.31C209.88,-116.12 209.88,-107.38 209.88,-100.22"/>
<polygon fill="#63b8ff" stroke="#63b8ff" points="206.38,-124.18 209.88,-134.18 213.38,-124.18 206.38,-124.18"/>
</a>
</g>
</g>
<!-- Node5 -->
<g id="Node000005" class="node">
<title>Node5</title>
<g id="a_Node000005"><a xlink:href="driver__mb85rsxx__read__test_8h.html" target="_top" xlink:title="driver mb85rsxx read test header file">
<polygon fill="white" stroke="#666666" points="399.62,-100 292.12,-100 292.12,-68 399.62,-68 399.62,-100"/>
<text xml:space="preserve" text-anchor="start" x="300.12" y="-86.5" font-family="Helvetica,sans-Serif" font-size="10.00">test/driver_mb85rsxx</text>
<text xml:space="preserve" text-anchor="middle" x="345.88" y="-74.5" font-family="Helvetica,sans-Serif" font-size="10.00">_read_test.h</text>
</a>
</g>
</g>
<!-- Node1&#45;&gt;Node5 -->
<g id="edge4_Node000001_Node000005" class="edge">
<title>Node1&#45;&gt;Node5</title>
<g id="a_edge4_Node000001_Node000005"><a xlink:title=" ">
<path fill="none" stroke="#63b8ff" d="M251.9,-130.61C271.99,-120.86 295.64,-109.38 314.19,-100.38"/>
<polygon fill="#63b8ff" stroke="#63b8ff" points="250.59,-127.35 243.12,-134.87 253.65,-133.65 250.59,-127.35"/>
</a>
</g>
</g>
<!-- Node3 -->
<g id="Node000003" class="node">
<title>Node3</title>
<g id="a_Node000003"><a xlink:href="driver__mb85rsxx__basic_8c.html" target="_top" xlink:title="driver mb85rsxx basic source file">
<polygon fill="white" stroke="#666666" points="127.75,-32 0,-32 0,0 127.75,0 127.75,-32"/>
<text xml:space="preserve" text-anchor="start" x="8" y="-18.5" font-family="Helvetica,sans-Serif" font-size="10.00">example/driver_mb85rsxx</text>
<text xml:space="preserve" text-anchor="middle" x="63.88" y="-6.5" font-family="Helvetica,sans-Serif" font-size="10.00">_basic.c</text>
</a>
</g>
</g>
<!-- Node2&#45;&gt;Node3 -->
<g id="edge2_Node000002_Node000003" class="edge">
<title>Node2&#45;&gt;Node3</title>
<g id="a_edge2_Node000002_Node000003"><a xlink:title=" ">
<path fill="none" stroke="#63b8ff" d="M63.88,-56.31C63.88,-48.12 63.88,-39.38 63.88,-32.22"/>
<polygon fill="#63b8ff" stroke="#63b8ff" points="60.38,-56.18 63.88,-66.18 67.38,-56.18 60.38,-56.18"/>
</a>
</g>
</g>
<!-- Node6 -->
<g id="Node000006" class="node">
<title>Node6</title>
<g id="a_Node000006"><a xlink:href="driver__mb85rsxx__read__test_8c.html" target="_top" xlink:title="driver mb85rsxx read test source file">
<polygon fill="white" stroke="#666666" points="399.62,-32 292.12,-32 292.12,0 399.62,0 399.62,-32"/>
<text xml:space="preserve" text-anchor="start" x="300.12" y="-18.5" font-family="Helvetica,sans-Serif" font-size="10.00">test/driver_mb85rsxx</text>
<text xml:space="preserve" text-anchor="middle" x="345.88" y="-6.5" font-family="Helvetica,sans-Serif" font-size="10.00">_read_test.c</text>
</a>
</g>
</g>
<!-- Node5&#45;&gt;Node6 -->
<g id="edge5_Node000005_Node000006" class="edge">
<title>Node5&#45;&gt;Node6</title>
<g id="a_edge5_Node000005_Node000006"><a xlink:title=" ">
<path fill="none" stroke="#63b8ff" d="M345.88,-56.31C345.88,-48.12 345.88,-39.38 345.88,-32.22"/>
<polygon fill="#63b8ff" stroke="#63b8ff" points="342.38,-56.18 345.88,-66.18 349.38,-56.18 342.38,-56.18"/>
</a>
</g>
</g>
</g>
</svg>
