<?xml version="1.0" encoding="UTF-8" standalone="no"?>
<!DOCTYPE svg PUBLIC "-//W3C//DTD SVG 1.1//EN"
 "http://www.w3.org/Graphics/SVG/1.1/DTD/svg11.dtd">
<!-- Generated by graphviz version 13.1.0 (20250701.0955)
 -->
<!-- Title: mb85rsxx_basic_init Pages: 1 -->
<svg width="251pt" height="316pt"
 viewBox="0.00 0.00 251.00 316.00" xmlns="http://www.w3.org/2000/svg" xmlns:xlink="http://www.w3.org/1999/xlink">
<g id="graph0" class="graph" transform="scale(1 1) rotate(0) translate(4 312)">
<title>mb85rsxx_basic_init</title>
<!-- Node1 -->
<g id="Node000001" class="node">
<title>Node1</title>
<g id="a_Node000001"><a xlink:title="basic example init">
<polygon fill="#999999" stroke="#666666" points="105.25,-164 0,-164 0,-144 105.25,-144 105.25,-164"/>
<text xml:space="preserve" text-anchor="middle" x="52.62" y="-150.5" font-family="Helvetica,sans-Serif" font-size="10.00">mb85rsxx_basic_init</text>
</a>
</g>
</g>
<!-- Node2 -->
<g id="Node000002" class="node">
<title>Node2</title>
<g id="a_Node000002"><a xlink:href="group__mb85rsxx__base__driver.html#gafd049e5b62a527bc4e92bf8b2f55bc8b" target="_top" xlink:title="initialize the chip">
<polygon fill="white" stroke="#666666" points="230.38,-308 153.62,-308 153.62,-288 230.38,-288 230.38,-308"/>
<text xml:space="preserve" text-anchor="middle" x="192" y="-294.5" font-family="Helvetica,sans-Serif" font-size="10.00">mb85rsxx_init</text>
</a>
</g>
</g>
<!-- Node1&#45;&gt;Node2 -->
<g id="edge1_Node000001_Node000002" class="edge">
<title>Node1&#45;&gt;Node2</title>
<g id="a_edge1_Node000001_Node000002"><a xlink:title=" ">
<path fill="none" stroke="#63b8ff" d="M58.2,-164.3C69.18,-187.87 99.24,-246.25 141.25,-279 142.73,-280.15 144.29,-281.24 145.9,-282.27"/>
<polygon fill="#63b8ff" stroke="#63b8ff" points="143.81,-285.12 154.27,-286.8 147.14,-278.96 143.81,-285.12"/>
</a>
</g>
</g>
<!-- Node3 -->
<g id="Node000003" class="node">
<title>Node3</title>
<g id="a_Node000003"><a xlink:href="group__mb85rsxx__interface__driver.html#ga20047181d6563fb56b21d2361e645100" target="_top" xlink:title="interface print format data">
<polygon fill="white" stroke="#666666" points="242.75,-270 141.25,-270 141.25,-238 242.75,-238 242.75,-270"/>
<text xml:space="preserve" text-anchor="start" x="149.25" y="-256.5" font-family="Helvetica,sans-Serif" font-size="10.00">mb85rsxx_interface</text>
<text xml:space="preserve" text-anchor="middle" x="192" y="-244.5" font-family="Helvetica,sans-Serif" font-size="10.00">_debug_print</text>
</a>
</g>
</g>
<!-- Node1&#45;&gt;Node3 -->
<g id="edge2_Node000001_Node000003" class="edge">
<title>Node1&#45;&gt;Node3</title>
<g id="a_edge2_Node000001_Node000003"><a xlink:title=" ">
<path fill="none" stroke="#63b8ff" d="M64.01,-164.37C79.76,-179.75 111.07,-208.93 141.25,-229 142.8,-230.03 144.4,-231.05 146.03,-232.05"/>
<polygon fill="#63b8ff" stroke="#63b8ff" points="143.88,-234.85 154.29,-236.8 147.37,-228.78 143.88,-234.85"/>
</a>
</g>
</g>
<!-- Node4 -->
<g id="Node000004" class="node">
<title>Node4</title>
<g id="a_Node000004"><a xlink:href="group__mb85rsxx__interface__driver.html#ga36e5789db6a62ea05b57a1cf2d577caa" target="_top" xlink:title="interface delay ms">
<polygon fill="white" stroke="#666666" points="242.75,-220 141.25,-220 141.25,-188 242.75,-188 242.75,-220"/>
<text xml:space="preserve" text-anchor="start" x="149.25" y="-206.5" font-family="Helvetica,sans-Serif" font-size="10.00">mb85rsxx_interface</text>
<text xml:space="preserve" text-anchor="middle" x="192" y="-194.5" font-family="Helvetica,sans-Serif" font-size="10.00">_delay_ms</text>
</a>
</g>
</g>
<!-- Node1&#45;&gt;Node4 -->
<g id="edge3_Node000001_Node000004" class="edge">
<title>Node1&#45;&gt;Node4</title>
<g id="a_edge3_Node000001_Node000004"><a xlink:title=" ">
<path fill="none" stroke="#63b8ff" d="M82.42,-164.48C97.68,-170.03 116.94,-177.05 135,-183.62"/>
<polygon fill="#63b8ff" stroke="#63b8ff" points="133.73,-186.88 144.32,-187.01 136.12,-180.3 133.73,-186.88"/>
</a>
</g>
</g>
<!-- Node5 -->
<g id="Node000005" class="node">
<title>Node5</title>
<g id="a_Node000005"><a xlink:href="group__mb85rsxx__interface__driver.html#ga37fd062b0ed6d86f1cf400d00c10849e" target="_top" xlink:title="interface spi bus deinit">
<polygon fill="white" stroke="#666666" points="242.75,-170 141.25,-170 141.25,-138 242.75,-138 242.75,-170"/>
<text xml:space="preserve" text-anchor="start" x="149.25" y="-156.5" font-family="Helvetica,sans-Serif" font-size="10.00">mb85rsxx_interface</text>
<text xml:space="preserve" text-anchor="middle" x="192" y="-144.5" font-family="Helvetica,sans-Serif" font-size="10.00">_spi_deinit</text>
</a>
</g>
</g>
<!-- Node1&#45;&gt;Node5 -->
<g id="edge4_Node000001_Node000005" class="edge">
<title>Node1&#45;&gt;Node5</title>
<g id="a_edge4_Node000001_Node000005"><a xlink:title=" ">
<path fill="none" stroke="#63b8ff" d="M105.56,-154C113.32,-154 121.38,-154 129.32,-154"/>
<polygon fill="#63b8ff" stroke="#63b8ff" points="129.3,-157.5 139.3,-154 129.3,-150.5 129.3,-157.5"/>
</a>
</g>
</g>
<!-- Node6 -->
<g id="Node000006" class="node">
<title>Node6</title>
<g id="a_Node000006"><a xlink:href="group__mb85rsxx__interface__driver.html#gac89fed4b8d5efb5b842c58f8293fa48e" target="_top" xlink:title="interface spi bus init">
<polygon fill="white" stroke="#666666" points="242.75,-120 141.25,-120 141.25,-88 242.75,-88 242.75,-120"/>
<text xml:space="preserve" text-anchor="start" x="149.25" y="-106.5" font-family="Helvetica,sans-Serif" font-size="10.00">mb85rsxx_interface</text>
<text xml:space="preserve" text-anchor="middle" x="192" y="-94.5" font-family="Helvetica,sans-Serif" font-size="10.00">_spi_init</text>
</a>
</g>
</g>
<!-- Node1&#45;&gt;Node6 -->
<g id="edge5_Node000001_Node000006" class="edge">
<title>Node1&#45;&gt;Node6</title>
<g id="a_edge5_Node000001_Node000006"><a xlink:title=" ">
<path fill="none" stroke="#63b8ff" d="M82.42,-143.52C97.68,-137.97 116.94,-130.95 135,-124.38"/>
<polygon fill="#63b8ff" stroke="#63b8ff" points="136.12,-127.7 144.32,-120.99 133.73,-121.12 136.12,-127.7"/>
</a>
</g>
</g>
<!-- Node7 -->
<g id="Node000007" class="node">
<title>Node7</title>
<g id="a_Node000007"><a xlink:href="group__mb85rsxx__interface__driver.html#ga9f88d6094f89b7e9d729bd345fcd0024" target="_top" xlink:title="interface spi bus read write">
<polygon fill="white" stroke="#666666" points="242.75,-70 141.25,-70 141.25,-38 242.75,-38 242.75,-70"/>
<text xml:space="preserve" text-anchor="start" x="149.25" y="-56.5" font-family="Helvetica,sans-Serif" font-size="10.00">mb85rsxx_interface</text>
<text xml:space="preserve" text-anchor="middle" x="192" y="-44.5" font-family="Helvetica,sans-Serif" font-size="10.00">_spi_read_write</text>
</a>
</g>
</g>
<!-- Node1&#45;&gt;Node7 -->
<g id="edge6_Node000001_Node000007" class="edge">
<title>Node1&#45;&gt;Node7</title>
<g id="a_edge6_Node000001_Node000007"><a xlink:title=" ">
<path fill="none" stroke="#63b8ff" d="M64.01,-143.63C79.76,-128.25 111.07,-99.07 141.25,-79 142.8,-77.97 144.4,-76.95 146.03,-75.95"/>
<polygon fill="#63b8ff" stroke="#63b8ff" points="147.37,-79.22 154.29,-71.2 143.88,-73.15 147.37,-79.22"/>
</a>
</g>
</g>
<!-- Node8 -->
<g id="Node000008" class="node">
<title>Node8</title>
<g id="a_Node000008"><a xlink:href="group__mb85rsxx__base__driver.html#ga69406db37147ad8c6823391821684e07" target="_top" xlink:title="set the chip type">
<polygon fill="white" stroke="#666666" points="242.75,-20 141.25,-20 141.25,0 242.75,0 242.75,-20"/>
<text xml:space="preserve" text-anchor="middle" x="192" y="-6.5" font-family="Helvetica,sans-Serif" font-size="10.00">mb85rsxx_set_type</text>
</a>
</g>
</g>
<!-- Node1&#45;&gt;Node8 -->
<g id="edge7_Node000001_Node000008" class="edge">
<title>Node1&#45;&gt;Node8</title>
<g id="a_edge7_Node000001_Node000008"><a xlink:title=" ">
<path fill="none" stroke="#63b8ff" d="M58.2,-143.7C69.18,-120.13 99.24,-61.75 141.25,-29 142.73,-27.85 144.29,-26.76 145.9,-25.73"/>
<polygon fill="#63b8ff" stroke="#63b8ff" points="147.14,-29.04 154.27,-21.2 143.81,-22.88 147.14,-29.04"/>
</a>
</g>
</g>
</g>
</svg>
