<?xml version="1.0" encoding="UTF-8" standalone="no"?>
<!DOCTYPE svg PUBLIC "-//W3C//DTD SVG 1.1//EN"
 "http://www.w3.org/Graphics/SVG/1.1/DTD/svg11.dtd">
<!-- Generated by graphviz version 13.1.0 (20250701.0955)
 -->
<!-- Title: mb85rsxx driver function Pages: 1 -->
<svg width="293pt" height="240pt"
 viewBox="0.00 0.00 293.00 240.00" xmlns="http://www.w3.org/2000/svg" xmlns:xlink="http://www.w3.org/1999/xlink">
<g id="graph0" class="graph" transform="scale(1 1) rotate(0) translate(4 236)">
<title>mb85rsxx driver function</title>
<!-- Node3 -->
<g id="Node000003" class="node">
<title>Node3</title>
<g id="a_Node000003"><a xlink:href="group__mb85rsxx__base__driver.html" target="_top" xlink:title="mb85rsxx base driver modules">
<polygon fill="white" stroke="#666666" points="276.88,-232 167.12,-232 167.12,-200 276.88,-200 276.88,-232"/>
<text xml:space="preserve" text-anchor="start" x="175.12" y="-218.5" font-family="Helvetica,sans-Serif" font-size="10.00">mb85rsxx base driver</text>
<text xml:space="preserve" text-anchor="middle" x="222" y="-206.5" font-family="Helvetica,sans-Serif" font-size="10.00"> function</text>
</a>
</g>
</g>
<!-- Node1 -->
<g id="Node000001" class="node">
<title>Node1</title>
<g id="a_Node000001"><a xlink:title="mb85rsxx driver modules">
<polygon fill="#999999" stroke="#666666" points="123.25,-126 0,-126 0,-106 123.25,-106 123.25,-126"/>
<text xml:space="preserve" text-anchor="middle" x="61.62" y="-112.5" font-family="Helvetica,sans-Serif" font-size="10.00">mb85rsxx driver function</text>
</a>
</g>
</g>
<!-- Node1&#45;&gt;Node3 -->
<g id="edge2" class="edge">
<title>Node1&#45;&gt;Node3</title>
<path fill="none" stroke="black" d="M82.31,-133.92C101.06,-150.33 130.6,-174.5 159.25,-191 164.56,-194.06 170.32,-196.92 176.12,-199.54"/>
<polygon fill="black" stroke="black" points="84.71,-131.38 74.91,-127.35 80.06,-136.61 84.71,-131.38"/>
</g>
<!-- Node5 -->
<g id="Node000005" class="node">
<title>Node5</title>
<g id="a_Node000005"><a xlink:href="group__mb85rsxx__example__driver.html" target="_top" xlink:title="mb85rsxx example driver modules">
<polygon fill="white" stroke="#666666" points="284.75,-182 159.25,-182 159.25,-150 284.75,-150 284.75,-182"/>
<text xml:space="preserve" text-anchor="start" x="167.25" y="-168.5" font-family="Helvetica,sans-Serif" font-size="10.00">mb85rsxx example driver</text>
<text xml:space="preserve" text-anchor="middle" x="222" y="-156.5" font-family="Helvetica,sans-Serif" font-size="10.00"> function</text>
</a>
</g>
</g>
<!-- Node1&#45;&gt;Node5 -->
<g id="edge4" class="edge">
<title>Node1&#45;&gt;Node5</title>
<path fill="none" stroke="black" d="M106.72,-129.92C125.99,-136 148.73,-143.18 168.83,-149.53"/>
<polygon fill="black" stroke="black" points="107.86,-126.61 97.27,-126.94 105.75,-133.29 107.86,-126.61"/>
</g>
<!-- Node4 -->
<g id="Node000004" class="node">
<title>Node4</title>
<g id="a_Node000004"><a xlink:href="group__mb85rsxx__interface__driver.html" target="_top" xlink:title="mb85rsxx interface driver modules">
<polygon fill="white" stroke="#666666" points="271.62,-132 172.38,-132 172.38,-100 271.62,-100 271.62,-132"/>
<text xml:space="preserve" text-anchor="start" x="180.38" y="-118.5" font-family="Helvetica,sans-Serif" font-size="10.00">mb85rsxx interface</text>
<text xml:space="preserve" text-anchor="middle" x="222" y="-106.5" font-family="Helvetica,sans-Serif" font-size="10.00"> driver function</text>
</a>
</g>
</g>
<!-- Node1&#45;&gt;Node4 -->
<g id="edge3" class="edge">
<title>Node1&#45;&gt;Node4</title>
<path fill="none" stroke="black" d="M134.83,-116C147.38,-116 160.17,-116 171.92,-116"/>
<polygon fill="black" stroke="black" points="134.92,-112.5 124.92,-116 134.92,-119.5 134.92,-112.5"/>
</g>
<!-- Node2 -->
<g id="Node000002" class="node">
<title>Node2</title>
<g id="a_Node000002"><a xlink:href="group__mb85rsxx__link__driver.html" target="_top" xlink:title="mb85rsxx link driver modules">
<polygon fill="white" stroke="#666666" points="273.88,-82 170.12,-82 170.12,-50 273.88,-50 273.88,-82"/>
<text xml:space="preserve" text-anchor="start" x="178.12" y="-68.5" font-family="Helvetica,sans-Serif" font-size="10.00">mb85rsxx link driver</text>
<text xml:space="preserve" text-anchor="middle" x="222" y="-56.5" font-family="Helvetica,sans-Serif" font-size="10.00"> function</text>
</a>
</g>
</g>
<!-- Node1&#45;&gt;Node2 -->
<g id="edge1" class="edge">
<title>Node1&#45;&gt;Node2</title>
<path fill="none" stroke="black" d="M106.59,-102.12C126.18,-95.93 149.38,-88.61 169.75,-82.18"/>
<polygon fill="black" stroke="black" points="105.75,-98.71 97.27,-105.06 107.86,-105.39 105.75,-98.71"/>
</g>
<!-- Node6 -->
<g id="Node000006" class="node">
<title>Node6</title>
<g id="a_Node000006"><a xlink:href="group__mb85rsxx__test__driver.html" target="_top" xlink:title="mb85rsxx test driver modules">
<polygon fill="white" stroke="#666666" points="274.62,-32 169.38,-32 169.38,0 274.62,0 274.62,-32"/>
<text xml:space="preserve" text-anchor="start" x="177.38" y="-18.5" font-family="Helvetica,sans-Serif" font-size="10.00">mb85rsxx test driver</text>
<text xml:space="preserve" text-anchor="middle" x="222" y="-6.5" font-family="Helvetica,sans-Serif" font-size="10.00"> function</text>
</a>
</g>
</g>
<!-- Node1&#45;&gt;Node6 -->
<g id="edge5" class="edge">
<title>Node1&#45;&gt;Node6</title>
<path fill="none" stroke="black" d="M82.31,-98.08C101.06,-81.67 130.6,-57.5 159.25,-41 164.56,-37.94 170.32,-35.08 176.12,-32.46"/>
<polygon fill="black" stroke="black" points="80.06,-95.39 74.91,-104.65 84.71,-100.62 80.06,-95.39"/>
</g>
</g>
</svg>
